<?xml version="1.0" encoding="UTF-8" standalone="no"?>
<!-- Created with Inkscape (http://www.inkscape.org/) -->

<svg
   width="1000.0001"
   height="250.00002"
   viewBox="0 0 264.58335 66.145836"
   version="1.1"
   id="svg5"
   xml:space="preserve"
   xmlns="http://www.w3.org/2000/svg"
   xmlns:svg="http://www.w3.org/2000/svg"><style
     id="style1"></style><defs
     id="defs2" /><g
     id="layer1"><rect
       style="fill-opacity:1;stroke-width:0.529167"
       id="rect1"
       width="264.58334"
       height="66.145836"
       x="-5.0862632e-06"
       y="-1.2715658e-06" /><g
       id="g1"><path
         style="font-weight:bold;font-size:36.5139px;line-height:1.25;font-family:'Helvetica Neue';-inkscape-font-specification:'Helvetica Neue Bold';fill:#ffffff;stroke-width:0.912852"
         d="m 22.629808,37.216253 c 0,1.095417 0.109542,2.190834 0.365139,3.213223 0.255598,1.022389 0.657251,1.971751 1.241473,2.775057 0.547709,0.839819 1.277987,1.49707 2.190834,2.008264 0.876334,0.511195 1.971751,0.730278 3.286251,0.730278 1.277987,0 2.373404,-0.219083 3.286251,-0.730278 0.876334,-0.511194 1.606612,-1.168445 2.190834,-2.008264 0.547709,-0.803306 0.949362,-1.752668 1.204959,-2.775057 0.255597,-1.022389 0.401653,-2.117806 0.401653,-3.213223 0,-1.131931 -0.146056,-2.227348 -0.401653,-3.322765 -0.255597,-1.058903 -0.65725,-2.008265 -1.204959,-2.848084 -0.584222,-0.83982 -1.3145,-1.49707 -2.190834,-2.008265 -0.912847,-0.511194 -2.008264,-0.766792 -3.286251,-0.766792 -1.3145,0 -2.409917,0.255598 -3.286251,0.766792 -0.912847,0.511195 -1.643125,1.168445 -2.190834,2.008265 -0.584222,0.839819 -0.985875,1.789181 -1.241473,2.848084 -0.255597,1.095417 -0.365139,2.190834 -0.365139,3.322765 z m -5.732682,0 c 0,-1.935237 0.292111,-3.724418 0.876334,-5.404057 0.584222,-1.67964 1.424042,-3.140196 2.519459,-4.381669 1.095417,-1.204958 2.409917,-2.190834 4.016529,-2.921112 1.606611,-0.693764 3.395793,-1.022389 5.404057,-1.058903 2.008265,0 3.797446,0.365139 5.404057,1.058903 1.570098,0.730278 2.884599,1.67964 4.01653,2.921112 1.095417,1.241473 1.935236,2.702029 2.519459,4.381669 0.584222,1.679639 0.876333,3.46882 0.876333,5.404057 0,1.898723 -0.292111,3.687904 -0.876333,5.331029 -0.584223,1.643126 -1.424042,3.067168 -2.519459,4.272127 -1.095417,1.241472 -2.446432,2.190834 -4.01653,2.884598 -1.606611,0.693764 -3.395792,1.022389 -5.404057,1.022389 -2.008264,0 -3.797446,-0.328625 -5.404057,-1.022389 -1.606612,-0.693764 -2.921112,-1.643126 -4.016529,-2.884598 -1.095417,-1.204959 -1.935237,-2.629001 -2.519459,-4.272127 -0.584223,-1.643125 -0.876334,-3.432306 -0.876334,-5.331029 z m 38.522161,9.530128 c 0.839819,0 1.533584,-0.146056 2.117806,-0.511195 0.584222,-0.328625 1.022389,-0.766792 1.387528,-1.3145 0.365139,-0.547709 0.584223,-1.204959 0.766792,-1.935237 0.146056,-0.730278 0.219084,-1.460556 0.219084,-2.227348 0,-0.730278 -0.109542,-1.49707 -0.255598,-2.227348 -0.146055,-0.693764 -0.401653,-1.351014 -0.766792,-1.935236 -0.365139,-0.584223 -0.839819,-1.02239 -1.424042,-1.387529 -0.584222,-0.365139 -1.277986,-0.511194 -2.081292,-0.547708 -0.876334,0 -1.570098,0.182569 -2.15432,0.547708 -0.584223,0.365139 -1.02239,0.803306 -1.387529,1.351015 -0.365139,0.584222 -0.584222,1.204958 -0.730278,1.935236 -0.146055,0.730278 -0.219083,1.49707 -0.219083,2.263862 -0.03651,0.766792 0.07303,1.49707 0.219083,2.227348 0.146056,0.730278 0.401653,1.387528 0.766792,1.935237 0.365139,0.547708 0.83982,0.985875 1.424042,1.3145 0.584223,0.365139 1.277987,0.511195 2.117807,0.511195 z M 45.889159,31.264487 h 4.929376 v 2.409918 h 0.07303 c 0.620736,-1.02239 1.424042,-1.752668 2.409917,-2.227348 0.949362,-0.438167 2.044779,-0.693765 3.213224,-0.693765 1.460556,0 2.738542,0.292112 3.833959,0.83982 1.058903,0.584223 1.935237,1.314501 2.665515,2.227348 0.693764,0.949362 1.204959,2.008265 1.570098,3.249737 0.328625,1.241473 0.474681,2.519459 0.511194,3.83396 0,1.277986 -0.182569,2.482945 -0.511194,3.65139 -0.365139,1.168445 -0.876334,2.227348 -1.570098,3.103682 -0.693764,0.912847 -1.570098,1.643125 -2.592487,2.15432 -1.022389,0.547708 -2.227348,0.803305 -3.614876,0.803305 -1.168445,0 -2.263862,-0.219083 -3.249737,-0.693764 -0.985876,-0.47468 -1.789181,-1.168444 -2.409918,-2.117806 h -0.07303 v 8.945906 h -5.184974 z m 35.016831,7.412322 c -0.255597,-1.3145 -0.693764,-2.300376 -1.314501,-2.99414 -0.620736,-0.65725 -1.570097,-0.985875 -2.81157,-1.022389 -0.83982,0 -1.533584,0.146055 -2.081292,0.438167 -0.547709,0.292111 -0.985876,0.620736 -1.314501,1.022389 -0.328625,0.438167 -0.547708,0.876333 -0.693764,1.3145 -0.146055,0.474681 -0.219083,0.876334 -0.219083,1.241473 z m -8.434711,3.286251 c 0.07303,1.679639 0.47468,2.921112 1.277986,3.65139 0.766792,0.766792 1.898723,1.131931 3.359279,1.131931 1.022389,0 1.935237,-0.255597 2.702029,-0.766792 0.730278,-0.511195 1.204959,-1.095417 1.387528,-1.679639 h 4.564238 c -0.730278,2.263861 -1.862209,3.906987 -3.359279,4.856348 -1.533584,0.985876 -3.359279,1.460556 -5.477085,1.460556 -1.49707,0 -2.848085,-0.219083 -4.016529,-0.693764 -1.204959,-0.47468 -2.227348,-1.168444 -3.030654,-2.044778 -0.83982,-0.876334 -1.49707,-1.898723 -1.935237,-3.140196 -0.438167,-1.204958 -0.65725,-2.555973 -0.65725,-4.016529 0,-1.387528 0.219083,-2.702028 0.693764,-3.943501 0.438167,-1.204959 1.095417,-2.263862 1.971751,-3.140195 0.839819,-0.876334 1.862209,-1.606612 3.030653,-2.117807 1.168445,-0.511194 2.482946,-0.766792 3.943502,-0.766792 1.606611,0 2.99414,0.328626 4.199098,0.949362 1.168445,0.620736 2.15432,1.460556 2.921112,2.482945 0.766792,1.058903 1.314501,2.263862 1.67964,3.578362 0.328625,1.351015 0.438167,2.738543 0.365139,4.199099 z M 89.158114,31.264487 h 4.929376 v 2.629001 h 0.109542 c 0.65725,-1.095417 1.49707,-1.862209 2.555973,-2.373404 1.022389,-0.511194 2.117806,-0.766792 3.213223,-0.766792 1.387532,0 2.519462,0.219084 3.395792,0.584223 0.87633,0.365139 1.60661,0.912847 2.11781,1.570098 0.51119,0.65725 0.83982,1.49707 1.0589,2.446431 0.21908,0.949361 0.32863,2.008265 0.32863,3.176709 v 11.611421 h -5.18498 V 39.480115 c 0,-1.533584 -0.2556,-2.702029 -0.73028,-3.468821 -0.51119,-0.766792 -1.351011,-1.168445 -2.592483,-1.168445 -1.424042,0 -2.446431,0.438167 -3.067168,1.277987 -0.65725,0.83982 -0.949361,2.227348 -0.949361,4.126071 v 9.895267 h -5.184974 z m 39.581076,1.570098 c -0.10954,-0.65725 -0.32862,-1.241473 -0.65725,-1.789181 -0.36513,-0.547709 -0.76679,-1.02239 -1.27798,-1.460556 -0.5112,-0.401653 -1.09542,-0.730278 -1.75267,-0.949362 -0.65725,-0.219083 -1.3145,-0.328625 -2.00826,-0.365139 -1.3145,0 -2.40992,0.255598 -3.28625,0.766792 -0.91285,0.511195 -1.64313,1.168445 -2.19084,2.008265 -0.58422,0.839819 -0.98587,1.789181 -1.24147,2.848084 -0.2556,1.095417 -0.36514,2.190834 -0.36514,3.322765 0,1.095417 0.10954,2.190834 0.36514,3.213223 0.2556,1.022389 0.65725,1.971751 1.24147,2.775057 0.54771,0.839819 1.27799,1.49707 2.19084,2.008264 0.87633,0.511195 1.97175,0.730278 3.28625,0.730278 1.75266,0 3.10368,-0.511194 4.08955,-1.606611 0.98588,-1.058904 1.60661,-2.482946 1.8257,-4.235613 h 5.55011 c -0.14605,1.643126 -0.54771,3.103682 -1.13193,4.418182 -0.62074,1.3145 -1.42404,2.446431 -2.40992,3.359279 -1.02239,0.949361 -2.19083,1.643125 -3.50533,2.117806 -1.35102,0.511195 -2.81157,0.730278 -4.41818,0.730278 -2.00827,0 -3.79745,-0.328625 -5.40406,-1.022389 -1.60661,-0.693764 -2.92111,-1.643126 -4.01653,-2.884598 -1.09542,-1.204959 -1.93524,-2.629001 -2.51946,-4.272127 -0.58422,-1.643125 -0.87633,-3.432306 -0.87633,-5.331029 0,-1.935237 0.29211,-3.724418 0.87633,-5.404057 0.58422,-1.67964 1.42404,-3.140196 2.51946,-4.381669 1.09542,-1.204958 2.40992,-2.190834 4.01653,-2.921112 1.60661,-0.693764 3.39579,-1.022389 5.40406,-1.058903 1.42404,0 2.77505,0.219084 4.05304,0.620737 1.27799,0.438166 2.40992,1.022389 3.43231,1.825695 1.02239,0.803305 1.8622,1.752667 2.51946,2.921112 0.65725,1.168445 1.0589,2.519459 1.24147,4.016529 z m 15.40884,1.789181 h 5.80571 c 1.02239,0 1.86221,-0.219083 2.51946,-0.730278 0.65725,-0.474681 0.98588,-1.277987 0.98588,-2.373404 0,-0.584222 -0.10955,-1.095417 -0.32863,-1.49707 -0.21908,-0.365139 -0.51119,-0.693764 -0.87633,-0.912847 -0.36514,-0.18257 -0.80331,-0.365139 -1.27799,-0.438167 -0.47468,-0.07303 -0.94936,-0.109542 -1.46056,-0.146055 h -5.36754 z m -5.73268,-10.552517 h 12.26867 c 1.24147,0 2.3734,0.109541 3.39579,0.328625 1.02239,0.219083 1.89872,0.584222 2.629,1.095417 0.73028,0.511194 1.27799,1.168445 1.67964,1.97175 0.40166,0.83982 0.62074,1.862209 0.62074,3.067168 0,1.3145 -0.32863,2.409918 -0.91285,3.286251 -0.58422,0.876334 -1.46056,1.606612 -2.629,2.15432 1.60661,0.474681 2.77506,1.277987 3.57836,2.446432 0.80331,1.168444 1.20496,2.555973 1.20496,4.162584 0,1.314501 -0.2556,2.482946 -0.76679,3.432307 -0.5112,0.949361 -1.20496,1.752667 -2.08129,2.33689 -0.87634,0.620736 -1.86221,1.058903 -2.95763,1.351014 -1.09542,0.292111 -2.22735,0.438167 -3.39579,0.438167 h -12.63381 z m 5.73268,21.616229 h 6.13434 c 0.5477,0 1.09541,-0.03651 1.60661,-0.146056 0.51119,-0.109541 0.94936,-0.292111 1.35101,-0.547708 0.36514,-0.255598 0.69377,-0.620737 0.91285,-1.058903 0.21908,-0.438167 0.36514,-0.985876 0.36514,-1.67964 0,-1.3145 -0.40165,-2.263862 -1.13193,-2.848084 -0.76679,-0.584222 -1.75267,-0.83982 -2.99414,-0.876334 h -6.24388 z m 25.70581,-0.365139 h 5.11195 c 0.8033,0 1.60661,-0.109542 2.40991,-0.401653 0.7668,-0.255597 1.46056,-0.693764 2.0813,-1.3145 0.58422,-0.620737 1.09541,-1.424043 1.46055,-2.446432 0.36514,-0.985875 0.54771,-2.190834 0.54771,-3.65139 0,-1.3145 -0.14605,-2.482945 -0.40165,-3.541848 -0.2556,-1.058903 -0.65725,-1.971751 -1.24147,-2.738543 -0.58423,-0.730278 -1.38753,-1.3145 -2.33689,-1.716153 -0.94936,-0.401653 -2.15432,-0.620736 -3.54185,-0.620736 h -4.08956 z m -5.73268,-21.25109 h 11.24628 c 1.67964,0 3.21322,0.292111 4.67378,0.803305 1.46056,0.547709 2.70203,1.351015 3.76093,2.409918 1.0589,1.095417 1.89872,2.409917 2.48295,4.016529 0.58422,1.606612 0.87633,3.505334 0.91284,5.659655 0,1.898722 -0.25559,3.65139 -0.73027,5.258001 -0.5112,1.606612 -1.24148,2.99414 -2.22735,4.162585 -0.98588,1.168445 -2.22735,2.117806 -3.68791,2.775056 -1.46055,0.657251 -3.21322,0.985876 -5.18497,0.985876 h -11.24628 z m 44.43738,8.763336 c -0.10954,-0.65725 -0.32863,-1.241473 -0.65725,-1.789181 -0.36514,-0.547709 -0.76679,-1.02239 -1.27799,-1.460556 -0.51119,-0.401653 -1.09542,-0.730278 -1.75267,-0.949362 -0.65725,-0.219083 -1.3145,-0.328625 -2.00826,-0.365139 -1.3145,0 -2.40992,0.255598 -3.28625,0.766792 -0.91285,0.511195 -1.64313,1.168445 -2.19084,2.008265 -0.58422,0.839819 -0.98587,1.789181 -1.24147,2.848084 -0.2556,1.095417 -0.36514,2.190834 -0.36514,3.322765 0,1.095417 0.10954,2.190834 0.36514,3.213223 0.2556,1.022389 0.65725,1.971751 1.24147,2.775057 0.54771,0.839819 1.27799,1.49707 2.19084,2.008264 0.87633,0.511195 1.97175,0.730278 3.28625,0.730278 1.75267,0 3.10368,-0.511194 4.08956,-1.606611 0.98587,-1.058904 1.60661,-2.482946 1.82569,-4.235613 h 5.55011 c -0.14605,1.643126 -0.5477,3.103682 -1.13193,4.418182 -0.62073,1.3145 -1.42404,2.446431 -2.40991,3.359279 -1.02239,0.949361 -2.19084,1.643125 -3.50534,2.117806 -1.35101,0.511195 -2.81157,0.730278 -4.41818,0.730278 -2.00826,0 -3.79745,-0.328625 -5.40406,-1.022389 -1.60661,-0.693764 -2.92111,-1.643126 -4.01653,-2.884598 -1.09541,-1.204959 -1.93523,-2.629001 -2.51946,-4.272127 -0.58422,-1.643125 -0.87633,-3.432306 -0.87633,-5.331029 0,-1.935237 0.29211,-3.724418 0.87633,-5.404057 0.58423,-1.67964 1.42405,-3.140196 2.51946,-4.381669 1.09542,-1.204958 2.40992,-2.190834 4.01653,-2.921112 1.60661,-0.693764 3.3958,-1.022389 5.40406,-1.058903 1.42404,0 2.77506,0.219084 4.05304,0.620737 1.27799,0.438166 2.40992,1.022389 3.43231,1.825695 1.02239,0.803305 1.86221,1.752667 2.51946,2.921112 0.65725,1.168445 1.0589,2.519459 1.24147,4.016529 z"
         id="text949"
         aria-label="OpenCBDC" /><path
         style="fill:#ffffff;fill-opacity:1;stroke-width:0.0960482"
         d="m 224.82679,25.724199 v -6.531285 h 1.63282 1.63282 v 4.898462 4.898463 h 4.89846 4.89846 v 1.632822 1.632822 h -6.53128 -6.53128 z m 19.57072,1.656832 -0.0249,-4.87445 -4.87357,-0.0249 -4.87357,-0.0249 -0.0249,-4.873571 -0.0249,-4.873572 -4.87676,-0.02489 -4.87677,-0.02489 0.0263,-1.607927 0.0263,-1.607927 6.50728,-0.02468 6.50727,-0.02468 v 4.899127 4.899133 h 4.89846 4.89846 v 6.531285 6.531285 h -1.63194 -1.63194 z"
         id="path1097" /></g></g></svg>
